<?xml version="1.0" standalone="no"?>
<!DOCTYPE svg PUBLIC "-//W3C//DTD SVG 20010904//EN"
 "http://www.w3.org/TR/2001/REC-SVG-20010904/DTD/svg10.dtd">
<svg version="1.0" xmlns="http://www.w3.org/2000/svg"
 width="256.000000pt" height="256.000000pt" viewBox="0 0 256.000000 256.000000"
 preserveAspectRatio="xMidYMid meet">
<metadata>
Created by potrace 1.12, written by Peter Selinger 2001-2015
</metadata>
<g transform="translate(0.000000,256.000000) scale(0.100000,-0.100000)"
fill="#000000" stroke="none">
<path d="M2340 2544 c-20 -8 -109 -89 -206 -185 l-171 -171 -94 45 c-201 96
-401 110 -609 41 -152 -51 -188 -79 -546 -438 l-332 -331 -50 -105 c-67 -141
-86 -217 -86 -360 0 -140 19 -219 81 -349 l45 -94 -175 -176 c-195 -196 -209
-219 -187 -300 23 -87 109 -136 192 -112 35 11 76 45 219 188 l176 175 94 -45
c133 -64 209 -81 354 -80 178 1 318 46 460 148 74 53 630 612 674 678 90 133
133 279 133 447 0 139 -22 235 -83 359 l-41 83 175 177 c148 149 177 183 187
219 20 78 -13 151 -83 182 -50 23 -80 24 -127 4z m-680 -563 c73 -23 75 -20
-67 -163 -72 -73 -137 -146 -142 -161 -36 -94 19 -199 113 -214 79 -13 101 0
246 143 75 74 139 134 143 134 15 0 47 -136 47 -199 -1 -85 -14 -140 -52 -221
-28 -57 -69 -102 -327 -361 -260 -259 -304 -299 -362 -327 -88 -42 -157 -56
-254 -49 -78 5 -169 31 -163 48 2 4 60 69 130 143 135 143 148 166 134 241
-10 50 -59 102 -109 116 -75 20 -107 2 -252 -142 -72 -71 -134 -129 -137 -129
-17 0 -41 95 -46 176 -6 113 18 202 77 290 56 83 584 606 641 635 94 47 149
59 250 55 52 -2 111 -9 130 -15z"/>
</g>
</svg>
