<?xml version="1.0" standalone="no"?>
<!DOCTYPE svg PUBLIC "-//W3C//DTD SVG 20010904//EN"
 "http://www.w3.org/TR/2001/REC-SVG-20010904/DTD/svg10.dtd">
<svg version="1.0" xmlns="http://www.w3.org/2000/svg"
 width="256.000000pt" height="256.000000pt" viewBox="0 0 256.000000 256.000000"
 preserveAspectRatio="xMidYMid meet">
<metadata>
Created by potrace 1.12, written by Peter Selinger 2001-2015
</metadata>
<g transform="translate(0.000000,256.000000) scale(0.100000,-0.100000)"
fill="#000000" stroke="none">
<path d="M1011 2538 c-443 -90 -812 -423 -955 -861 -28 -86 -57 -223 -48 -232
3 -3 74 -5 158 -5 l154 0 6 28 c41 193 133 362 268 498 136 135 305 227 499
268 l27 6 0 155 c0 84 -3 156 -7 158 -5 3 -50 -4 -102 -15z"/>
<path d="M1445 2552 c-3 -3 -5 -74 -5 -158 l0 -154 28 -6 c195 -43 363 -133
498 -268 135 -135 223 -299 268 -498 l6 -28 154 0 c84 0 155 2 158 5 8 9 -20
146 -48 231 -127 391 -432 697 -824 828 -82 27 -226 57 -235 48z"/>
<path d="M1029 1871 c-120 -51 -219 -135 -290 -245 -35 -53 -79 -152 -79 -177
0 -6 84 -8 228 -7 l227 3 3 228 c2 178 0 227 -10 227 -7 0 -43 -13 -79 -29z"/>
<path d="M1442 1674 l3 -229 229 -3 228 -2 -6 27 c-43 173 -256 386 -429 429
l-27 6 2 -228z"/>
<path d="M7 1083 c3 -21 16 -78 29 -128 114 -447 470 -803 919 -920 50 -13
106 -25 125 -27 l35 -3 3 157 3 157 -28 7 c-79 18 -166 47 -230 78 -277 133
-469 379 -537 689 l-6 27 -160 0 -159 0 6 -37z"/>
<path d="M665 1093 c3 -16 22 -62 42 -103 51 -106 178 -233 283 -282 41 -20
87 -39 103 -42 l27 -6 -2 227 -3 228 -229 3 -228 2 7 -27z"/>
<path d="M1447 1113 c-4 -3 -7 -107 -7 -231 l0 -224 28 7 c135 33 317 186 384
325 20 41 40 87 43 103 l7 27 -224 0 c-124 0 -228 -3 -231 -7z"/>
<path d="M2234 1093 c-45 -200 -133 -363 -269 -498 -135 -136 -298 -224 -497
-269 l-28 -6 0 -160 0 -159 38 6 c287 44 592 213 775 430 155 184 266 423 300
646 l6 37 -159 0 -160 0 -6 -27z"/>
</g>
</svg>
