<svg xmlns="http://www.w3.org/2000/svg" xmlns:xlink="http://www.w3.org/1999/xlink" version="1.1" x="0px" y="0px" viewBox="0 0 100 100" enable-background="new 0 0 100 100" xml:space="preserve"><path d="M94.665,82.718L54.623,12.874C53.566,11.449,52.143,10,50.718,10c-1.426,0-2.849,1.448-3.905,2.874L6.701,82.844  c-0.377,1.468-0.278,3.863,3.345,5.679c0.016,0,0.028,0.005,0.043,0.005h81.257C95.086,86.658,95.081,84.174,94.665,82.718z   M55.534,79.866c-1.149,0.958-2.757,1.436-4.82,1.436c-2.084,0-3.718-0.479-4.897-1.436c-1.18-0.957-1.77-2.29-1.77-3.996  c0-1.725,0.568-3.065,1.706-4.023c1.138-0.956,2.791-1.434,4.961-1.434c2.149,0,3.776,0.479,4.882,1.434  c1.105,0.958,1.66,2.299,1.66,4.023C57.257,77.579,56.682,78.909,55.534,79.866z M55.96,66.111H45.532L43.713,36.69  c0-2.32,3.135-4.203,7.005-4.203c3.868,0,7.004,1.882,7.004,4.203L55.96,66.111z"></path></svg>